<svg xmlns="http://www.w3.org/2000/svg" width="400" height="200" viewBox="0 0 400 200">
    <defs>
        <style>
            .prefix__cls-3{fill:none}.prefix__cls-12,.prefix__cls-3,.prefix__cls-6{stroke:#3f3d56}.prefix__cls-4{fill:rgba(89,89,89,.1)}.prefix__cls-5{fill:#178fac}.prefix__cls-12,.prefix__cls-6{fill:#f0f0f0}.prefix__cls-7{fill:#bfbfbf}.prefix__cls-11{fill:#8c8c8c;opacity:.1}.prefix__cls-12{stroke-linejoin:round}
        </style>
    </defs>
    <g id="prefix__img-404" transform="translate(-631 -280)">
        <path id="prefix__Rectangle_1719" fill="none" d="M0 0H400V200H0z" data-name="Rectangle 1719" transform="translate(631 280)"/>
        <g id="prefix__Group_458" data-name="Group 458" transform="translate(-127.04 -77.019)">
            <path id="prefix__Path_1651" fill="#595959" d="M189.452 144.4a5.391 5.391 0 0 0-3.711.67 10.082 10.082 0 0 0-4.591 6.541 25.285 25.285 0 0 0-.29 8.192 110.874 110.874 0 0 0 4.631 23.585c.7 2.22-1.3 7.492.15 9.312 1.18 1.48.59 10.372 2.13 11.472 4.271 3.081 13.143 1.38 17.414 4.461 5.531 4 5.161-6.561 4.281-10.912-1-4.851-8.512-4-14.263-20.384-7.652-21.805-3.791-32.487-5.751-32.937z" data-name="Path 1651" opacity="0.105" transform="translate(749.764 271.24)"/>
            <path id="prefix__Path_1655" d="M166.534 214.965a47.65 47.65 0 0 1-11-16.774 100.362 100.362 0 0 1-5.894-34.591c0-15.853 3.781-32.317 9.522-41.829 9.212-15.413 24.915-23.865 43.949-23.865 14.653 0 27.486 5 36.7 14a47.61 47.61 0 0 1 11 16.764 100.642 100.642 0 0 1 5.881 34.738c0 15.863-3.771 32.477-9.512 42.009-9.062 15.123-24.915 23.605-44.1 23.605-14.802.006-27.334-4.855-36.546-14.057zm14-52.561c0 27.006 7.7 40.929 22.655 40.929s22.355-13.593 22.355-40.479c0-25.826-7.852-39.419-22.5-39.419-14.153 0-22.465 14.343-22.465 38.968z" class="prefix__cls-3" data-name="Path 1655" transform="translate(746.757 274.231)"/>
            <path id="prefix__Path_1659" d="M228.65 173.268s19.224 1.7 28.006-10c3.5-4.641-4.3-26.506-4.3-26.506l-8.872 15.883-14 3.181z" class="prefix__cls-4" data-name="Path 1659" transform="translate(749.775 271.239)"/>
            <path id="prefix__Path_1660" d="M267.92 174.146c6.791-7.552 6.791-7.552 14.493-16.614l32.777-38.368c7.252-8.3 10.122-12.083 14-18h31.01a217.048 217.048 0 0 0-1.18 25.105v49.091h4.38a107.416 107.416 0 0 0 14.953-1.21v27.486a118.725 118.725 0 0 0-14.8-.91h-4.533v7.552a105.338 105.338 0 0 0 1.21 18.574h-31.147a131.033 131.033 0 0 0 1.21-18.824v-7.4h-42.739c-9.822 0-14.053.15-19.634.61zm62.524-16c0-6.8.3-15.1.91-21.745-3 4.221-5.291 7.242-9.362 12.383l-22.055 26.886h30.507z" class="prefix__cls-3" data-name="Path 1660" transform="translate(749.783 271.231)"/>
            <path id="prefix__Path_1836" d="M267.92 174.146c6.791-7.552 6.791-7.552 14.493-16.614l32.777-38.368c7.252-8.3 10.122-12.083 14-18h31.01a217.048 217.048 0 0 0-1.18 25.105v49.091h4.38a107.416 107.416 0 0 0 14.953-1.21v27.486a118.725 118.725 0 0 0-14.8-.91h-4.533v7.552a105.338 105.338 0 0 0 1.21 18.574h-31.147a131.033 131.033 0 0 0 1.21-18.824v-7.4h-42.739c-9.822 0-14.053.15-19.634.61zm62.524-16c0-6.8.3-15.1.91-21.745-3 4.221-5.291 7.242-9.362 12.383l-22.055 26.886h30.507z" class="prefix__cls-3" data-name="Path 1836" transform="translate(505.731 271.231)"/>
            <path id="prefix__Path_1650" d="M199.134 136.82c3 .5 5.791 2.34 8.8 3 2.631.6 5.4.29 8 1.21 4.851 1.72 8 7.572 8.692 13.443s-.54 11.813-1.94 17.514c-3.681 15.023-8.682 30.026-17.684 41.419-.63.79-1.39 1.62-2.32 1.6a3.221 3.221 0 0 1-1.73-.81 28.885 28.885 0 0 1-5.151-4.511c-2.4-2.891-3.791-6.7-5-10.482-3.411-10.642-9.922-17.384-11.132-28.666-1.319-11.837 5.152-36.077 19.465-33.717z" class="prefix__cls-5" data-name="Path 1650" transform="translate(749.764 271.239)"/>
            <path id="prefix__Path_1657" d="M169.924 215.525a47.631 47.631 0 0 1-11-16.764A100.362 100.362 0 0 1 153 164.174c0-15.853 3.781-32.317 9.522-41.839 9.212-15.4 24.915-23.855 43.949-23.855 14.643 0 27.486 5 36.7 14a47.491 47.491 0 0 1 11 16.764 100.371 100.371 0 0 1 5.921 34.767c0 15.853-3.771 32.477-9.512 42.009-9.062 15.1-24.925 23.555-44.1 23.555-14.802-.007-27.334-4.838-36.556-14.05zm14.083-52.511c0 27.006 7.7 40.929 22.655 40.929 14.8 0 22.355-13.593 22.355-40.469 0-25.836-7.862-39.429-22.5-39.429-14.239-.039-22.51 14.304-22.51 38.969z" class="prefix__cls-6" data-name="Path 1657" transform="translate(749.758 271.23)"/>
            <path id="prefix__Path_1658" d="M231.1 110.45a7.062 7.062 0 0 1 2.711 7.342 14.343 14.343 0 0 1 9.742 5.2 18.8 18.8 0 0 1 3.751 9.772 51.312 51.312 0 0 1-.23 10.582 11 11 0 0 1-.74 3.541 7.5 7.5 0 0 1-5.131 3.851 22.1 22.1 0 0 1-6.6.31l-5.251-.28a1.08 1.08 0 0 1-.5-.11 1 1 0 0 1-.35-.72c-.36-2.15-.91-3.091-1.3-5.241a33.517 33.517 0 0 0-5.6-12.593 4.721 4.721 0 0 1-1-1.95 5.291 5.291 0 0 1 .64-2.861A39.4 39.4 0 0 0 223 122a55.83 55.83 0 0 1 1.65-6.381 9.362 9.362 0 0 1 4-5.081" class="prefix__cls-4" data-name="Path 1658" transform="translate(749.773 271.233)"/>
            <path id="prefix__Path_1661" d="M183.551 139.06a10.182 10.182 0 0 0-1.5.69 3.471 3.471 0 0 0-1.16.95 1.48 1.48 0 0 0-.2 1.43 1.86 1.86 0 0 0 1.93.81c1.23-.12 2.37-.73 3.6-.94s2.391-1.06 1.52-2.37-2.96-1.03-4.19-.57z" class="prefix__cls-7" data-name="Path 1661" transform="translate(749.764 271.239)"/>
            <path id="prefix__Path_1662" d="M187.471 142c-1.8-.47-3.681.32-5.3 1.23a3.131 3.131 0 0 0-1 .77 1 1 0 0 0 .69 1.78 3.391 3.391 0 0 0 1.1-.07l2.491-.43a5.341 5.341 0 0 0 1.67-.48c1.13-.66 2.09-2.37.349-2.8z" class="prefix__cls-7" data-name="Path 1662" transform="translate(749.764 271.24)"/>
            <path id="prefix__Path_1663" d="M184 145.31a11.384 11.384 0 0 0-1.5.7 3.471 3.471 0 0 0-1.16 1 1.49 1.49 0 0 0-.2 1.42 1.86 1.86 0 0 0 1.93.81c1.23-.12 2.371-.73 3.6-.94s2.391-1.05 1.52-2.37-2.979-1.08-4.19-.62z" class="prefix__cls-7" data-name="Path 1663" transform="translate(749.764 271.241)"/>
            <path id="prefix__Path_1664" d="M187.881 147.83c-1.85-.15-3.561 1-5 2.14a3.281 3.281 0 0 0-.87.95 1 1 0 0 0 1 1.62 3.3 3.3 0 0 0 1.06-.26l2.371-.87a5.341 5.341 0 0 0 1.57-.77c.988-.82 1.66-2.64-.131-2.81z" class="prefix__cls-7" data-name="Path 1664" transform="translate(749.765 271.241)"/>
            <path id="prefix__Path_1665" d="M240.883 119.6a20.164 20.164 0 0 0-9.352-1.95 3.9 3.9 0 0 0-1.6.26 1.4 1.4 0 0 0-.84 1.28 1.94 1.94 0 0 0 .76 1.18 17 17 0 0 0 3.941 2.681 3.511 3.511 0 0 1 1.16.75 1.06 1.06 0 0 1 .17 1.27c-.33.46-1.09.48-1.34 1-.33.65.5 1.29 1.22 1.41a4.431 4.431 0 0 0 2.28-.21 4.251 4.251 0 0 1 1.64-.46 4 4 0 0 1 1.56.71c1.58.9 6.491.93 6.181-1.81-.289-2.54-3.763-5.06-5.78-6.111z" class="prefix__cls-7" data-name="Path 1665" transform="translate(749.775 271.235)"/>
            <path id="prefix__Path_1666" d="M216.72 141.654s22.115 9.112 24.645 8.642S239.8 128 239.8 128l7.542-3.451s17 33.707 3.081 38.608a40.459 40.459 0 0 1-26.486-.28z" class="prefix__cls-5" data-name="Path 1666" transform="translate(749.772 271.236)"/>
            <path id="prefix__Path_1667" d="M228.485 129a14.943 14.943 0 0 1-1.36 5.661 10 10 0 0 1-7.552 4.771 22.4 22.4 0 0 0-3.341.47 3.151 3.151 0 0 0-2.29 1.91c-.89 2.16-1.81 4.351-4.681 3.621a3.6 3.6 0 0 1-.78-.27 7.722 7.722 0 0 1-2.391-1.75 14.394 14.394 0 0 1-2.18-2.841 4.151 4.151 0 0 1-.62-1.58 5.161 5.161 0 0 1 .24-2.05c1-4 1.16-8.532 2.581-12.433a18.244 18.244 0 0 1 7.862-9.422c3.591-2.09 8.582-2.12 11.633.73a10.5 10.5 0 0 1 3 6.2 29.127 29.127 0 0 1-.12 6.982z" class="prefix__cls-7" data-name="Path 1667" transform="translate(749.769 271.234)"/>
            <path id="prefix__Path_1668" fill="#3f3d56" d="M204.16 124c.19-1.88.18-3.791.55-5.641a8 8 0 0 1 2.671-4.871 4.441 4.441 0 0 1 1.2-.68c.39-.14.8-.22 1.2-.33a15.763 15.763 0 0 0 3.341-1.66 16.494 16.494 0 0 1 5.121-2 22.746 22.746 0 0 1 3.691-.26q3.4-.06 6.831-.06a3.36 3.36 0 0 1 1.57.26 2.531 2.531 0 0 1 1.11 1.48 7.051 7.051 0 0 1 0 4.241 20.224 20.224 0 0 1-1.75 3.921 6.841 6.841 0 0 1-1.46 2.09c-.53-.92-1-1.87-1.48-2.831-1.53 1.59-3.941 2-6.141 1.83s-4.361-.74-6.561-.77a4 4 0 0 0-2.941.87 4.6 4.6 0 0 0-1 2 49.571 49.571 0 0 0-1.13 5c-.26-.49-1.31-1.77-1.86-1.75a1.16 1.16 0 0 0-.81.45c-.91 1-.46 4.671.38 5.731a1.44 1.44 0 0 1 .37.58 1.12 1.12 0 0 1-.24.83 2.231 2.231 0 0 1-1.9.78c-.88 0-1.05-1.68-1.14-2.3-.372-2.31.158-4.636.378-6.91z" data-name="Path 1668" transform="translate(749.769 271.233)"/>
            <path id="prefix__Path_1669" fill="#595959" d="M207.67 128.22a1.67 1.67 0 0 1-.16-.83 2.421 2.421 0 0 0-.09-.85 1.09 1.09 0 0 0-.51-.59.38.38 0 0 0-.21 0 .39.39 0 0 0-.23.28 5 5 0 0 0 .11 3.351 1.33 1.33 0 0 0 .77.86 1 1 0 0 0 .91-.28 1.23 1.23 0 0 0 .26-1.27c-.17-.4-.64-.31-.85-.671z" data-name="Path 1669" opacity="0.097" transform="translate(749.77 271.236)"/>
            <path id="prefix__Path_1670" fill="#595959" d="M216.232 139.88a3.151 3.151 0 0 0-2.29 1.91c-.89 2.16-1.81 4.351-4.681 3.621a3.6 3.6 0 0 1-.78-.27 2.331 2.331 0 0 1-.58-.75 2.691 2.691 0 0 1 .08-2.1 4.691 4.691 0 0 1 4.221-2.9 13.455 13.455 0 0 1 2.27.3c.46.06 1 0 1.42.05a.87.87 0 0 1 .34.14z" data-name="Path 1670" opacity="0.102" transform="translate(749.77 271.239)"/>
            <path id="prefix__Path_1653" d="M264.24 174.146c6.791-7.552 6.791-7.552 14.493-16.614l32.777-38.368a150.756 150.756 0 0 0 14-18h31.01a217.052 217.052 0 0 0-1.21 25.075v49.091h4.381a107.409 107.409 0 0 0 14.953-1.21v27.48a118.723 118.723 0 0 0-14.8-.91h-4.534v7.552a105.341 105.341 0 0 0 1.21 18.574H325.4a131.027 131.027 0 0 0 1.21-18.794v-7.4h-42.736c-9.822 0-14.053.15-19.634.61zm62.524-16c0-6.8.3-15.1.9-21.745-3 4.221-5.281 7.242-9.362 12.383l-22 26.886H326.8z" class="prefix__cls-6" data-name="Path 1653" transform="translate(757.784 271.231)"/>
            <path id="prefix__Path_1835" d="M264.24 174.146c6.791-7.552 6.791-7.552 14.493-16.614l32.777-38.368a150.756 150.756 0 0 0 14-18h31.01a217.052 217.052 0 0 0-1.21 25.075v49.091h4.381a107.409 107.409 0 0 0 14.953-1.21v27.48a118.723 118.723 0 0 0-14.8-.91h-4.534v7.552a105.341 105.341 0 0 0 1.21 18.574H325.4a131.027 131.027 0 0 0 1.21-18.794v-7.4h-42.736c-9.822 0-14.053.15-19.634.61zm62.524-16c0-6.8.3-15.1.9-21.745-3 4.221-5.281 7.242-9.362 12.383l-22 26.886H326.8z" class="prefix__cls-6" data-name="Path 1835" transform="translate(513.732 271.231)"/>
            <ellipse id="prefix__Ellipse_326" cx="23.126" cy="5.407" class="prefix__cls-11" data-name="Ellipse 326" rx="23.126" ry="5.407" transform="translate(773.259 528.205)"/>
            <ellipse id="prefix__Ellipse_329" cx="65.135" cy="3.906" class="prefix__cls-11" data-name="Ellipse 329" rx="65.135" ry="3.906" transform="translate(829.271 537.207)"/>
            <ellipse id="prefix__Ellipse_327" cx="14.124" cy="5.407" class="prefix__cls-11" data-name="Ellipse 327" rx="14.124" ry="5.407" transform="translate(1112.332 524.204)"/>
            <ellipse id="prefix__Ellipse_328" cx="8.123" cy="2.906" class="prefix__cls-11" data-name="Ellipse 328" rx="8.123" ry="2.906" transform="translate(1084.326 520.203)"/>
            <path id="prefix__Path_1830" d="M789.938 709.889s-10.307-2.571-13.053-6-15.115-9.416-16.489-5.136-18.548 18.841-6.87 21.422 27.48 3.408 30.917 1.714 5.495-12 5.495-12z" class="prefix__cls-6" data-name="Path 1830" transform="translate(26.705 -189.448)"/>
            <path id="prefix__Path_1841" d="M865.641 704.2s-29.592-1.411-37.476-3.293-43.4-5.169-47.343-2.82-47.855 8.63-19.725 11.761 78.9 1.871 88.766.941a28.169 28.169 0 0 0 15.778-6.589z" class="prefix__cls-12" data-name="Path 1841" transform="translate(83.718 -171.944)"/>
            <path id="prefix__Path_1842" d="M866.641 703.208s-29.847-1.21-37.8-2.823-43.77-4.431-47.751-2.417-53.712 8.867-19.895 10.081 79.578 1.6 89.531.806a30.8 30.8 0 0 0 15.915-5.647z" class="prefix__cls-12" data-name="Path 1842" transform="translate(83.717 -171.944)"/>
            <path id="prefix__Path_1837" d="M0 10.251s6.23-2.088 7.889-4.873 9.135-7.648 9.966-4.172 11.21 15.3 4.152 17.4S5.4 21.375 3.321 20 0 10.251 0 10.251z" class="prefix__cls-6" data-name="Path 1837" transform="rotate(-20 2010.955 -2898.153)"/>
            <path id="prefix__Path_1839" d="M0 4.753s2.889-.968 3.658-2.259S7.894-1.053 8.28.559s5.2 7.1 1.925 8.069S2.5 9.912 1.54 9.274 0 4.753 0 4.753z" class="prefix__cls-6" data-name="Path 1839" transform="rotate(-131 666.263 14.505)"/>
            <path id="prefix__Path_1840" d="M0 4.753s3.07-.968 3.888-2.259S8.39-1.053 8.8.559s5.525 7.1 2.046 8.069-8.185 1.284-9.209.645S0 4.753 0 4.753z" class="prefix__cls-6" data-name="Path 1840" transform="rotate(-131 666.42 13.586)"/>
            <path id="prefix__Path_1831" d="M753.53 731.748c11.682 2.566 27.48 3.408 30.917 1.709 2.613-1.3 4.433-7.571 5.151-10.487l.344.093s-2.062 10.273-5.5 11.986-19.235.857-30.917-1.714c-3.37-.74-4.335-2.483-3.972-4.684.294 1.449 1.469 2.557 3.977 3.097z" class="prefix__cls-3" data-name="Path 1831" transform="translate(26.701 -201.176)"/>
            <path id="prefix__Path_1838" d="M22.007 7.643C14.947 9.877 5.4 10.61 3.321 9.131 1.742 7.995.642 2.539.208 0L0 .081s1.246 8.944 3.321 10.436 11.626.746 18.686-1.492c2.037-.644 2.62-2.162 2.4-4.078a3.119 3.119 0 0 1-2.4 2.696z" class="prefix__cls-3" data-name="Path 1838" transform="rotate(-20 2041.23 -2903.492)"/>
        </g>
    </g>
</svg>
