<svg width="359" height="170" viewBox="0 0 359 170" fill="none" xmlns="http://www.w3.org/2000/svg">
<path d="M236.67 160.35H127.88C125.339 160.35 123.28 162.407 123.28 164.945C123.28 167.483 125.339 169.54 127.88 169.54H236.67C239.21 169.54 241.27 167.483 241.27 164.945C241.27 162.407 239.21 160.35 236.67 160.35Z" fill="#E7F0F5"/>
<path d="M107.91 160.35H91.0001C88.686 160.35 86.8101 162.226 86.8101 164.54V165.35C86.8101 167.664 88.686 169.54 91.0001 169.54H107.91C110.224 169.54 112.1 167.664 112.1 165.35V164.54C112.1 162.226 110.224 160.35 107.91 160.35Z" fill="#E7F0F5"/>
<path d="M237.03 131.67H114.05L81.25 43.03H269.82L237.03 131.67Z" fill="white"/>
<path d="M219.84 43.37L203.64 131.58L237.03 131.67L269.85 43.12L219.84 43.37Z" fill="#E7F0F5"/>
<path d="M86.0696 44.22C85.7103 44.2226 85.3595 44.1105 85.0682 43.9001C84.7769 43.6897 84.5602 43.3919 84.4496 43.05L77.5996 22.32H57.8896C57.6534 22.3381 57.416 22.3071 57.1923 22.2291C56.9686 22.1511 56.7634 22.0277 56.5896 21.8667C56.4158 21.7057 56.2772 21.5105 56.1823 21.2934C56.0875 21.0763 56.0386 20.8419 56.0386 20.605C56.0386 20.3681 56.0875 20.1337 56.1823 19.9166C56.2772 19.6995 56.4158 19.5043 56.5896 19.3433C56.7634 19.1823 56.9686 19.0589 57.1923 18.9809C57.416 18.9029 57.6534 18.872 57.8896 18.89H80.0696L87.6996 42C87.842 42.4323 87.8073 42.9035 87.603 43.3102C87.3987 43.717 87.0415 44.0261 86.6096 44.17C86.4335 44.2158 86.2511 44.2327 86.0696 44.22Z" fill="#178FAC"/>
<path d="M136.92 44.7C136.51 44.6996 136.114 44.552 135.803 44.284C135.493 44.016 135.29 43.6455 135.23 43.24L132.23 22.8H112.74C112.504 22.818 112.266 22.7871 112.042 22.7091C111.819 22.6311 111.613 22.5077 111.44 22.3467C111.266 22.1857 111.127 21.9905 111.032 21.7734C110.938 21.5563 110.889 21.3219 110.889 21.085C110.889 20.8481 110.938 20.6137 111.032 20.3966C111.127 20.1795 111.266 19.9843 111.44 19.8233C111.613 19.6623 111.819 19.5389 112.042 19.4609C112.266 19.3829 112.504 19.3519 112.74 19.37H135.17L138.62 42.73C138.66 42.9562 138.654 43.1881 138.603 43.4121C138.551 43.636 138.456 43.8474 138.322 44.0338C138.187 44.2202 138.017 44.3779 137.821 44.4975C137.625 44.617 137.407 44.6961 137.18 44.73L136.92 44.7Z" fill="#178FAC"/>
<path d="M154.56 169.72C161.027 169.72 166.27 164.477 166.27 158.01C166.27 151.543 161.027 146.3 154.56 146.3C148.092 146.3 142.85 151.543 142.85 158.01C142.85 164.477 148.092 169.72 154.56 169.72Z" fill="#178FAC"/>
<path d="M200.83 169.72C207.297 169.72 212.54 164.477 212.54 158.01C212.54 151.543 207.297 146.3 200.83 146.3C194.362 146.3 189.12 151.543 189.12 158.01C189.12 164.477 194.362 169.72 200.83 169.72Z" fill="#178FAC"/>
<path opacity="0.3" d="M244.43 126.84H121.45L88.6499 38.2H277.23L244.43 126.84Z" stroke="black" stroke-width="0.82" stroke-miterlimit="10"/>
<path opacity="0.3" d="M111.36 37.82L134.97 126.4" stroke="black" stroke-width="0.82" stroke-miterlimit="10"/>
<path opacity="0.3" d="M139.54 38.76L155.16 126.95" stroke="black" stroke-width="0.82" stroke-miterlimit="10"/>
<path opacity="0.3" d="M168.11 38.14L173.82 127.03" stroke="black" stroke-width="0.82" stroke-miterlimit="10"/>
<path opacity="0.3" d="M192.2 126.83L197.44 38.14" stroke="black" stroke-width="0.82" stroke-miterlimit="10"/>
<path opacity="0.3" d="M210.83 126.86L226.39 38.14" stroke="black" stroke-width="0.82" stroke-miterlimit="10"/>
<path opacity="0.3" d="M229.05 126.72L255.34 38.14" stroke="black" stroke-width="0.82" stroke-miterlimit="10"/>
<path opacity="0.3" d="M269.81 59.11H96.8799" stroke="black" stroke-width="0.82" stroke-miterlimit="10"/>
<path opacity="0.3" d="M108.41 91.13L257.59 91.1" stroke="black" stroke-width="0.82" stroke-miterlimit="10"/>
<path opacity="0.3" d="M247.42 118.62H118.61" stroke="black" stroke-width="0.82" stroke-miterlimit="10"/>
<path opacity="0.3" d="M88.7896 38.8L81.5496 16.89H60.5996" stroke="black" stroke-width="0.82" stroke-miterlimit="10"/>
<path opacity="0.3" d="M139.64 39.27L136.4 17.37H115.45" stroke="black" stroke-width="0.82" stroke-miterlimit="10"/>
<path opacity="0.3" d="M135.37 127.26L139.8 141.49L226.45 141.3" stroke="black" stroke-width="0.82" stroke-miterlimit="10"/>
<path opacity="0.3" d="M157.84 167.58C164.307 167.58 169.55 162.337 169.55 155.87C169.55 149.403 164.307 144.16 157.84 144.16C151.373 144.16 146.13 149.403 146.13 155.87C146.13 162.337 151.373 167.58 157.84 167.58Z" stroke="black" stroke-width="0.82" stroke-miterlimit="10"/>
<path opacity="0.3" d="M204.12 167.58C210.587 167.58 215.83 162.337 215.83 155.87C215.83 149.403 210.587 144.16 204.12 144.16C197.652 144.16 192.41 149.403 192.41 155.87C192.41 162.337 197.652 167.58 204.12 167.58Z" stroke="black" stroke-width="0.82" stroke-miterlimit="10"/>
<path d="M277.26 3.90002C280.34 10.9 280.79 18.49 278.16 26.8" stroke="#178FAC" stroke-width="0.82" stroke-miterlimit="10"/>
<path d="M309.89 38.53C303.07 35.21 295.58 34.53 287.3 36.95" stroke="#178FAC" stroke-width="0.82" stroke-miterlimit="10"/>
<path d="M21.2885 28.3254L7.69305 27.6962C7.41168 27.6832 7.17304 27.9007 7.16001 28.1821L6.53076 41.7775C6.51774 42.0589 6.73527 42.2975 7.01663 42.3105L20.6121 42.9398C20.8934 42.9528 21.1321 42.7353 21.1451 42.4539L21.7744 28.8585C21.7874 28.5771 21.5699 28.3385 21.2885 28.3254Z" stroke="#E7F0F5" stroke-width="0.75" stroke-miterlimit="10"/>
<path d="M16.2698 19.2234L16.5976 32.8295C16.6044 33.1111 16.8381 33.3339 17.1197 33.3271L30.7258 32.9993C31.0074 32.9925 31.2301 32.7587 31.2233 32.4772L30.8956 18.8711C30.8888 18.5895 30.655 18.3668 30.3734 18.3735L16.7674 18.7013C16.4858 18.7081 16.263 18.9419 16.2698 19.2234Z" fill="#E7F0F5"/>
<path d="M340.105 97.7759L336.525 85.8516C336.45 85.603 336.188 85.462 335.939 85.5366L324.015 89.1163C323.767 89.191 323.626 89.453 323.7 89.7016L327.28 101.626C327.355 101.875 327.617 102.016 327.865 101.941L339.789 98.3612C340.038 98.2866 340.179 98.0245 340.105 97.7759Z" stroke="#E7F0F5" stroke-width="0.75" stroke-miterlimit="10"/>
<path d="M210.864 10.5102L200.447 4.9036C200.233 4.78843 199.966 4.86853 199.851 5.08252L194.244 15.4995C194.129 15.7135 194.209 15.9804 194.423 16.0955L204.84 21.7022C205.054 21.8173 205.321 21.7372 205.436 21.5232L211.043 11.1062C211.158 10.8922 211.078 10.6254 210.864 10.5102Z" stroke="#E7F0F5" stroke-width="0.75" stroke-miterlimit="10"/>
<path d="M286.292 133.173L274.717 128.588C274.475 128.492 274.202 128.61 274.107 128.851L269.522 140.426C269.426 140.668 269.544 140.941 269.785 141.036L281.36 145.622C281.602 145.717 281.875 145.599 281.97 145.358L286.556 133.783C286.651 133.541 286.533 133.268 286.292 133.173Z" stroke="#E7F0F5" stroke-width="0.75" stroke-miterlimit="10"/>
<path d="M70.4543 98.0261L73.365 86.1578C73.4256 85.9111 73.2746 85.662 73.0279 85.6015L61.1596 82.6908C60.9128 82.6302 60.6638 82.7812 60.6032 83.0279L57.6925 94.8962C57.632 95.143 57.783 95.392 58.0297 95.4526L69.898 98.3633C70.1447 98.4238 70.3938 98.2728 70.4543 98.0261Z" stroke="#E7F0F5" stroke-width="0.75" stroke-miterlimit="10"/>
<path d="M16.4198 147.994L12.9062 136.29C12.8331 136.046 12.5767 135.908 12.3334 135.982L0.62938 139.495C0.386057 139.568 0.248014 139.825 0.321061 140.068L3.83465 151.772C3.9077 152.015 4.16417 152.153 4.40749 152.08L16.1115 148.567C16.3548 148.494 16.4928 148.237 16.4198 147.994Z" fill="#E7F0F5"/>
<path d="M346.457 90.6545L334.814 95.0634C334.571 95.1553 334.449 95.4266 334.54 95.6693L338.949 107.313C339.041 107.555 339.313 107.678 339.555 107.586L351.199 103.177C351.441 103.085 351.564 102.814 351.472 102.571L347.063 90.9276C346.971 90.6848 346.7 90.5625 346.457 90.6545Z" fill="#E7F0F5"/>
<path d="M352.956 0.473747L341.313 4.88263C341.07 4.97455 340.948 5.24586 341.04 5.48861L345.449 17.1318C345.541 17.3746 345.812 17.4968 346.055 17.4049L357.698 12.996C357.941 12.9041 358.063 12.6328 357.971 12.3901L353.562 0.746848C353.47 0.504096 353.199 0.381824 352.956 0.473747Z" fill="#E7F0F5"/>
</svg>
