<svg id="Capa_1" enable-background="new 0 0 512 512" height="512" viewBox="0 0 512 512" width="512" xmlns="http://www.w3.org/2000/svg"><g><path d="m472.182 329.303-176.985-73.304 176.981-73.314-11.482-27.716-176.98 73.314 73.304-176.985-27.717-11.48-73.304 176.985-73.314-176.981-27.716 11.482 73.314 176.98-176.985-73.304-11.48 27.717 176.985 73.304-176.981 73.314 11.482 27.716 176.98-73.314-73.304 176.985 27.717 11.48 73.304-176.985 73.314 176.981 27.716-11.482-73.314-176.98 176.985 73.304z" fill="#f9b700"/><path d="m472.182 329.303-176.985-73.304 176.981-73.314-11.482-27.716-176.98 73.314 73.304-176.985-27.717-11.48-73.303 176.982v78.4l.001-.003 73.314 176.981 27.716-11.482-73.314-176.98 176.985 73.304z" fill="#f49d14"/><path d="m512 241h-219.787l155.413-155.413-21.213-21.212-155.413 155.412v-219.787h-30v219.787l-155.413-155.412-21.213 21.212 155.413 155.413h-219.787v30h219.787l-155.413 155.413 21.213 21.213 155.413-155.413v219.787h30v-219.787l155.413 155.413 21.213-21.213-155.413-155.413h219.787z" fill="#f9b700"/><path d="m512 241h-219.787l155.413-155.413-21.213-21.212-155.413 155.412v-219.787h-15v512h15v-219.787l155.413 155.413 21.213-21.213-155.413-155.413h219.787z" fill="#f49d14"/><path d="m256 448.206c-105.983 0-192.206-86.223-192.206-192.206s86.223-192.206 192.206-192.206 192.206 86.224 192.206 192.206-86.223 192.206-192.206 192.206z" fill="#fee46f"/><path d="m256 63.794v384.411c105.983 0 192.206-86.223 192.206-192.206s-86.223-192.205-192.206-192.205z" fill="#fed330"/></g></svg>