<svg xmlns="http://www.w3.org/2000/svg" id="prefix__icon_facebook" width="28" height="28" data-name="icon/facebook" viewBox="0 0 28 28">
    <path id="prefix__路径_962" d="M28 26.25A1.751 1.751 0 0 1 26.25 28H1.75A1.751 1.751 0 0 1 0 26.25V1.75A1.751 1.751 0 0 1 1.75 0h24.5A1.751 1.751 0 0 1 28 1.75z" data-name="路径 962" style="fill:#3b5998"/>
    <path id="prefix__f" d="M20.878 28.635v-10.5h3.5l.875-4.377h-4.375V12A2.322 2.322 0 0 1 23.5 9.377h1.751V5h-3.5C18.537 5 16.5 7.522 16.5 11.128v2.626H13v4.377h3.5v10.5z" transform="translate(-1.629 -.635)" style="fill:#fff"/>
</svg>
