<svg xmlns="http://www.w3.org/2000/svg" width="28" height="28" viewBox="0 0 28 28">
    <path d="M25 0H3a3 3 0 0 0-3 3v22a3 3 0 0 0 3 3h22a3 3 0 0 0 3-3V3a3 3 0 0 0-3-3zm-7.669 23.981c-.525.094-.719-.231-.719-.5 0-.338.013-2.062.013-3.456a2.435 2.435 0 0 0-.706-1.919c2.313-.256 4.75-.575 4.75-4.569A3.209 3.209 0 0 0 19.6 11.1a3.909 3.909 0 0 0-.106-2.812c-.869-.269-2.856 1.119-2.856 1.119a9.832 9.832 0 0 0-5.2 0S9.45 8.019 8.581 8.287a3.879 3.879 0 0 0-.106 2.813 3.139 3.139 0 0 0-.975 2.437c0 3.975 2.331 4.313 4.644 4.569a2.265 2.265 0 0 0-.663 1.394 2.193 2.193 0 0 1-3.019-.869 2.177 2.177 0 0 0-1.594-1.069c-1.012-.013-.069.638-.069.638.675.313 1.15 1.513 1.15 1.513.606 1.856 3.506 1.231 3.506 1.231 0 .869.012 2.281.012 2.537s-.187.594-.719.5a10.369 10.369 0 0 1-7.012-9.894A9.918 9.918 0 0 1 13.863 3.994 10.14 10.14 0 0 1 24.25 14.088a10.274 10.274 0 0 1-6.919 9.893zM11.2 20.163c-.119.025-.231-.025-.244-.106s.069-.175.188-.2.231.037.244.119-.063.161-.188.187zm-.594-.056c0 .081-.094.15-.219.15s-.231-.056-.231-.15.094-.15.219-.15.231.055.231.149zm-.856-.069c-.025.081-.15.119-.256.081s-.2-.119-.175-.2.15-.119.256-.094c.125.037.206.131.175.213zm-.769-.338c-.056.069-.175.056-.269-.037s-.119-.2-.056-.256.175-.056.269.038.112.205.056.255zm-.569-.569c-.056.037-.163 0-.231-.094s-.069-.2 0-.244.175-.013.231.081a.183.183 0 0 1 0 .256zm-.406-.606c-.056.056-.15.025-.219-.038-.069-.081-.081-.175-.025-.219s.15-.025.219.038c.069.081.081.175.025.219zm-.419-.463a.118.118 0 0 1-.175.025c-.081-.038-.119-.106-.094-.163a.147.147 0 0 1 .175-.025c.082.045.119.113.094.163z" data-name="icon/github"/>
</svg>
